# xmcd
#
# Track frame offsets:
#	150
#	21115
#	39265
#	58160
#	76822
#	87359
#	106815
#	122461
#	148695
#	162352
#
# Disc length: 2327
#
# Revision: 1
# Processed by: cddbd v1.5.1PL0 Copyright (c) Steve Scherf et al.
# Submitted via: dBpowerAMP V4.0
# Normalized: r0:TRMNUM
#
DISCID=7509150a
DTITLE=ibrahim tatlises - gözlerim yasli
DYEAR=2001
DGENRE=arabesk
TTITLE0=gözlerim yasli
TTITLE1=gul gec derdine
TTITLE2=cananim
TTITLE3=yarimin adi yasar
TTITLE4=memir ha
TTITLE5=kaderime yazili
TTITLE6=aradim bulamadim
TTITLE7=tersine
TTITLE8=cemile
TTITLE9=oklaviyam
EXTD=
EXTT0=
EXTT1=
EXTT2=
EXTT3=
EXTT4=
EXTT5=
EXTT6=
EXTT7=
EXTT8=
EXTT9=
PLAYORDER=
